<?xml version="1.0" encoding="utf-8"?>
<!-- Generator: Adobe Illustrator 26.5.0, SVG Export Plug-In . SVG Version: 6.00 Build 0)  -->
<svg version="1.1" id="Super_16_V2_by_1upkeyboards.com"
	 xmlns="http://www.w3.org/2000/svg" xmlns:xlink="http://www.w3.org/1999/xlink" x="0px" y="0px" viewBox="0 0 216.35 236.55"
	 style="enable-background:new 0 0 216.35 236.55;" xml:space="preserve">
<style type="text/css">
	
		.st0{fill:#010101;fill-opacity:0;stroke:#010101;stroke-width:0.25;stroke-linecap:round;stroke-linejoin:round;stroke-miterlimit:10;}
	.st1{fill:none;stroke:#010101;stroke-width:0.25;stroke-miterlimit:10;}
	.st2{fill:none;stroke:#010101;stroke-width:0.25;stroke-linecap:round;stroke-linejoin:round;stroke-miterlimit:10;}
	.st3{fill:#010101;}
</style>
<g id="Super16_v2.0_by_1upkeyboards.com">
	<desc>Super16 v2.0 by 1upkeyboards.com</desc>
	<path class="st0" d="M122.33,129.32l0.5,0.2h0.8l0.3-0.2l0.2-0.2l0.2-0.3v-0.3l-0.2-0.3l-0.2-0.2l-0.3-0.2l-0.6-0.2l-0.3-0.2
		l-0.2-0.2l-0.2-0.3v-0.3l0.2-0.3l0.2-0.2l0.3-0.2h0.8l0.5,0.2"/>
	<path class="st0" d="M126.93,127.33v2.2"/>
	<path class="st0" d="M125.53,127.33v1.7l0.2,0.3l0.3,0.2h0.5l0.3-0.2l0.2-0.2"/>
	<path class="st0" d="M128.52,127.33v3.2"/>
	<path class="st0" d="M128.52,127.43l0.3-0.2h0.6l0.3,0.2l0.2,0.2l0.2,0.3v0.9l-0.2,0.3l-0.2,0.2l-0.3,0.2h-0.6l-0.3-0.2"/>
	<path class="st0" d="M132.62,129.32l-0.3,0.2h-0.6l-0.3-0.2l-0.2-0.3v-1.2l0.2-0.3l0.3-0.2h0.6l0.3,0.2l0.2,0.3v0.3l-1.5,0.3"/>
	<path class="st0" d="M134.22,129.42v-2.1"/>
	<path class="st0" d="M134.22,127.93l0.2-0.3l0.2-0.2l0.3-0.2h0.3"/>
	<path class="st0" d="M137.92,129.42h-1.9"/>
	<path class="st0" d="M137.02,129.42v-3.2l-0.3,0.5l-0.3,0.3l-0.3,0.2"/>
	<path class="st0" d="M140.72,126.22h-0.7l-0.3,0.2l-0.2,0.2l-0.3,0.5l-0.2,0.6v1.2l0.2,0.3l0.2,0.2l0.3,0.2h0.6l0.3-0.2l0.2-0.2
		l0.2-0.3v-0.8l-0.2-0.3l-0.2-0.2l-0.3-0.2h-0.6l-0.3,0.2l-0.2,0.2l-0.2,0.3"/>
	<path class="st0" d="M144.52,127.33l0.8,2.2l0.8-2.2"/>
	<path class="st0" d="M147.12,126.53l0.2-0.2l0.3-0.2h0.8l0.3,0.2l0.2,0.2l0.2,0.3v0.3l-0.2,0.5l-1.9,1.9h2"/>
	<path class="st0" d="M150.42,129.12l0.2,0.2l-0.2,0.2l-0.2-0.2L150.42,129.12v0.3"/>
	<path class="st0" d="M152.52,126.22h0.3l0.3,0.2l0.2,0.2l0.2,0.3l0.2,0.6v0.8l-0.2,0.6l-0.2,0.3l-0.2,0.2l-0.3,0.2h-0.3l-0.3-0.2
		l-0.2-0.2l-0.2-0.3l-0.2-0.6v-0.8l0.2-0.6l0.2-0.3l0.2-0.2L152.52,126.22"/>
	<path class="st0" d="M157.52,129.42v-3.2"/>
	<path class="st0" d="M157.52,127.43l0.3-0.2h0.6l0.3,0.2l0.2,0.2l0.2,0.3v0.9l-0.2,0.3l-0.2,0.2l-0.3,0.2h-0.6l-0.3-0.2"/>
	<path class="st0" d="M160.12,127.33l0.8,2.2"/>
	<path class="st0" d="M161.62,127.33l-0.8,2.2l-0.3,0.8l-0.2,0.2l-0.3,0.2"/>
	<path class="st0" d="M167.02,129.42h-1.9"/>
	<path class="st0" d="M166.12,129.42v-3.2l-0.3,0.5l-0.3,0.3l-0.3,0.2"/>
	<path class="st0" d="M169.82,127.33v2.2"/>
	<path class="st0" d="M168.42,127.33v1.7l0.2,0.3l0.3,0.2h0.5l0.3-0.2l0.2-0.2"/>
	<path class="st0" d="M171.42,127.33v3.2"/>
	<path class="st0" d="M171.42,127.43l0.3-0.2h0.6l0.3,0.2l0.2,0.2l0.2,0.3v0.9l-0.2,0.3l-0.2,0.2l-0.3,0.2h-0.6l-0.3-0.2"/>
	<path class="st0" d="M174.32,129.42v-3.2"/>
	<path class="st0" d="M174.62,128.22l0.9,1.2"/>
	<path class="st0" d="M175.52,127.33l-1.2,1.2"/>
	<path class="st0" d="M178.12,129.32l-0.3,0.2h-0.6l-0.3-0.2l-0.2-0.3v-1.2l0.2-0.3l0.3-0.2h0.6l0.3,0.2l0.2,0.3v0.3l-1.5,0.3"/>
	<path class="st0" d="M179.42,127.33l0.8,2.2"/>
	<path class="st0" d="M180.92,127.33l-0.8,2.2l-0.3,0.8l-0.2,0.2l-0.3,0.2"/>
	<path class="st0" d="M182.22,129.42v-3.2"/>
	<path class="st0" d="M182.22,127.43l0.3-0.2h0.6l0.3,0.2l0.2,0.2l0.2,0.3v0.9l-0.2,0.3l-0.2,0.2l-0.3,0.2h-0.6l-0.3-0.2"/>
	<path class="st0" d="M185.62,129.42l-0.3-0.2l-0.2-0.2l-0.2-0.3v-0.9l0.2-0.3l0.2-0.2l0.3-0.2h0.5l0.3,0.2l0.2,0.2l0.2,0.3v0.9
		l-0.2,0.3l-0.2,0.2l-0.3,0.2H185.62"/>
	<path class="st0" d="M189.42,129.42v-1.7l-0.2-0.3l-0.3-0.2h-0.6l-0.3,0.2"/>
	<path class="st0" d="M189.42,129.32l-0.3,0.2h-0.8l-0.3-0.2l-0.2-0.3v-0.3l0.2-0.3l0.3-0.2h0.8l0.3-0.2"/>
	<path class="st0" d="M191.02,129.42v-2.1"/>
	<path class="st0" d="M191.02,127.93l0.2-0.3l0.2-0.2l0.3-0.2h0.3"/>
	<path class="st0" d="M194.32,129.42v-3.2"/>
	<path class="st0" d="M194.32,129.32l-0.3,0.2h-0.6l-0.3-0.2l-0.2-0.2l-0.2-0.3v-0.9l0.2-0.3l0.2-0.2l0.3-0.2h0.6l0.3,0.2"/>
	<path class="st0" d="M195.72,129.32l0.3,0.2h0.6l0.3-0.2l0.2-0.3v-0.2l-0.2-0.3l-0.3-0.2h-0.5l-0.3-0.2l-0.2-0.3v-0.2l0.2-0.3
		l0.3-0.2h0.5l0.3,0.2"/>
	<path class="st0" d="M198.52,129.12l0.2,0.2l-0.2,0.2l-0.2-0.2L198.52,129.12v0.3"/>
	<path class="st0" d="M201.42,129.32l-0.3,0.2h-0.6l-0.3-0.2l-0.2-0.2l-0.2-0.3v-0.9l0.2-0.3l0.2-0.2l0.3-0.2h0.6l0.3,0.2"/>
	<path class="st0" d="M203.32,129.42l-0.3-0.1l-0.2-0.2l-0.2-0.3v-0.9l0.2-0.3l0.2-0.2l0.3-0.2h0.5l0.3,0.2l0.2,0.2l0.2,0.3v0.9
		l-0.2,0.3l-0.2,0.2l-0.3,0.2L203.32,129.42"/>
	<path class="st0" d="M205.82,129.42v-2.1"/>
	<path class="st0" d="M205.82,127.62l0.2-0.2l0.3-0.2h0.5l0.3,0.2l0.2,0.3v1.7"/>
	<path class="st0" d="M207.22,127.72l0.2-0.3l0.3-0.2h0.5l0.3,0.2l0.2,0.3v1.7"/>
</g>
<path id="Outer_Path" class="st1" d="M122.53,17.02c0,1.9,1.5,3.4,3.4,3.4h86.9c1.9,0,3.4,1.5,3.4,3.4v209.2c0,1.9-1.5,3.4-3.4,3.4
	H3.53c-1.9,0-3.4-1.5-3.4-3.4V23.82c0-1.9,1.5-3.4,3.4-3.4h86.9c1.9,0,3.4-1.5,3.4-3.4V3.53c0-1.9,1.5-3.4,3.4-3.4h21.9
	c1.9,0,3.4,1.5,3.4,3.4C122.53,3.53,122.53,17.02,122.53,17.02z"/>
<g id="Underglow_RGB">
	<path id="UG_04" class="st2" d="M169.22,187.82h-14.2v-14.2h14.2V187.82z"/>
	<path id="UG_03" class="st2" d="M61.23,187.82h-14.1v-14.2h14.2L61.23,187.82L61.23,187.82z"/>
	<path id="UG_02" class="st2" d="M169.22,79.83h-14.2v-14.2h14.2V79.83z"/>
	<path id="UG_01" class="st2" d="M61.23,79.83h-14.1v-14.2h14.2L61.23,79.83L61.23,79.83z"/>
</g>
<g id="Switch_LEDs">
	<path id="LED_16" class="st2" d="M194.02,226.42v-8.5h-9.6v8.5H194.02z"/>
	<path id="LED_15" class="st2" d="M140.02,226.42v-8.5h-9.6v8.5H140.02z"/>
	<path id="LED_14" class="st2" d="M86.03,226.42v-8.5h-9.6v8.5H86.03z"/>
	<path id="LED_13" class="st2" d="M32.03,226.42v-8.5h-9.6v8.5H32.03z"/>
	<path id="LED_12" class="st2" d="M194.02,172.42v-8.5h-9.6v8.5H194.02z"/>
	<path id="LED_11" class="st2" d="M140.02,172.42v-8.5h-9.6v8.5H140.02z"/>
	<path id="LED_10" class="st2" d="M86.03,172.42v-8.5h-9.6v8.5H86.03z"/>
	<path id="LED_9" class="st2" d="M32.03,172.42v-8.5h-9.6v8.5H32.03z"/>
	<path id="LED_08" class="st2" d="M194.02,118.43v-8.5h-9.6v8.5H194.02z"/>
	<path id="LED_07" class="st2" d="M140.02,118.43v-8.5h-9.6v8.5H140.02z"/>
	<path id="LED_06" class="st2" d="M86.03,118.43v-8.5h-9.6v8.5H86.03z"/>
	<path id="LED_05" class="st2" d="M32.03,118.43v-8.5h-9.6v8.5H32.03z"/>
	<path id="LED_04" class="st2" d="M194.02,64.43v-8.5h-9.6v8.5H194.02z"/>
	<path id="LED_03" class="st2" d="M140.02,64.43v-8.5h-9.6v8.5H140.02z"/>
	<path id="LED_02" class="st2" d="M86.03,64.43v-8.5h-9.6v8.5H86.03z"/>
	<path id="LED_01" class="st2" d="M32.03,64.43v-8.5h-9.6v8.5H32.03z"/>
</g>
<g id="Switches">
	<path id="SW_16" class="st2" d="M169.32,229.32v-39.7h39.7v39.7H169.32z"/>
	<path id="SW_15" class="st2" d="M115.33,229.32v-39.7h39.7v39.7H115.33z"/>
	<path id="SW_14" class="st2" d="M61.33,229.32v-39.7h39.7v39.7H61.33z"/>
	<path id="SW_13" class="st2" d="M7.33,229.32v-39.7h39.7v39.7H7.33z"/>
	<path id="SW_12" class="st2" d="M169.32,175.32v-39.7h39.7v39.7H169.32z"/>
	<path id="SW_11" class="st2" d="M115.33,175.32v-39.7h39.7v39.7H115.33z"/>
	<path id="SW_10" class="st2" d="M61.33,175.32v-39.7h39.7v39.7H61.33z"/>
	<path id="SW_09" class="st2" d="M7.33,175.32v-39.7h39.7v39.7H7.33z"/>
	<path id="SW_08" class="st2" d="M169.32,121.33v-39.7h39.7v39.7H169.32z"/>
	<path id="SW_07" class="st2" d="M115.33,121.33v-39.7h39.7v39.7H115.33z"/>
	<path id="SW_06" class="st2" d="M61.33,121.33v-39.7h39.7v39.7H61.33z"/>
	<path id="SW_05" class="st2" d="M7.33,121.33v-39.7h39.7v39.7H7.33z"/>
	<path id="SW_04" class="st2" d="M169.32,67.33v-39.7h39.7v39.7H169.32z"/>
	<path id="SW_03" class="st2" d="M115.33,67.33v-39.7h39.7v39.7H115.33z"/>
	<path id="SW_02" class="st2" d="M61.33,67.33v-39.7h39.7v39.7H61.33z"/>
	<path id="SW_01" class="st2" d="M7.33,67.33v-39.7h39.7v39.7H7.33z"/>
</g>
<g id="Keycap_Positions">
	<g id="SW_16_00000157293779888278852440000015617642464112439691_">
		<path class="st3" d="M215.92,182.73v53.5h-53.5v-53.5H215.92 M216.17,182.48h-54v54h54V182.48L216.17,182.48z"/>
	</g>
	<g id="SW_15_00000047025206202676393120000007994090989316030338_">
		<path class="st3" d="M161.92,182.73v53.5h-53.5v-53.5H161.92 M162.17,182.48h-54v54h54V182.48L162.17,182.48z"/>
	</g>
	<g id="SW_14_00000155847558745323394330000001171350053003030959_">
		<path class="st3" d="M107.92,182.73v53.5h-53.5v-53.5H107.92 M108.17,182.48h-54v54h54V182.48L108.17,182.48z"/>
	</g>
	<g id="SW_13_00000048495519848766224740000004317159108136931719_">
		<path class="st3" d="M53.93,182.73v53.5H0.43v-53.5H53.93 M54.18,182.48h-54v54h54V182.48L54.18,182.48z"/>
	</g>
	<g id="SW_12_00000060738840241027656500000003523567166809439874_">
		<path class="st3" d="M215.92,128.73v53.5h-53.5v-53.5H215.92 M216.17,128.48h-54v54h54V128.48L216.17,128.48z"/>
	</g>
	<g id="SW_11_00000169546199936507967200000016732711467597997230_">
		<path class="st3" d="M161.92,128.73v53.5h-53.5v-53.5H161.92 M162.17,128.48h-54v54h54V128.48L162.17,128.48z"/>
	</g>
	<g id="SW_10_00000104665279527002959170000010554820503285456286_">
		<path class="st3" d="M107.92,128.73v53.5h-53.5v-53.5H107.92 M108.17,128.48h-54v54h54V128.48L108.17,128.48z"/>
	</g>
	<g id="SW_09_00000041264371235349325330000017178419135605035650_">
		<path class="st3" d="M53.93,128.73v53.5H0.43v-53.5H53.93 M54.18,128.48h-54v54h54V128.48L54.18,128.48z"/>
	</g>
	<g id="SW_08_00000056389954951553621450000011576296372920328103_">
		<path class="st3" d="M215.92,74.72v53.5h-53.5v-53.5H215.92 M216.17,74.47h-54v54h54V74.47L216.17,74.47z"/>
	</g>
	<g id="SW_07_00000180351095710139272340000016585219397316180372_">
		<path class="st3" d="M161.92,74.72v53.5h-53.5v-53.5H161.92 M162.17,74.47h-54v54h54V74.47L162.17,74.47z"/>
	</g>
	<g id="SW_06_00000098917929263395847590000006062139087615076483_">
		<path class="st3" d="M107.92,74.72v53.5h-53.5v-53.5H107.92 M108.17,74.47h-54v54h54V74.47L108.17,74.47z"/>
	</g>
	<g id="SW_05_00000088840290676726492170000009707128188043876765_">
		<path class="st3" d="M53.93,74.72v53.5H0.43v-53.5H53.93 M54.18,74.47h-54v54h54V74.47L54.18,74.47z"/>
	</g>
	<g id="SW_04_00000181791660138937803460000011746131832309443757_">
		<path class="st3" d="M215.92,20.72v53.5h-53.5v-53.5H215.92 M216.17,20.47h-54v54h54V20.47L216.17,20.47z"/>
	</g>
	<g id="SW_03_00000062900680181372981570000011952480115606105257_">
		<path class="st3" d="M161.92,20.72v53.5h-53.5v-53.5H161.92 M162.17,20.47h-54v54h54V20.47L162.17,20.47z"/>
	</g>
	<g id="SW_02_00000112617862423306189730000001721558216530778548_">
		<path class="st3" d="M107.92,20.72v53.5h-53.5v-53.5H107.92 M108.17,20.47h-54v54h54V20.47L108.17,20.47z"/>
	</g>
	<g id="SW_01_00000057857373802084653900000011922143051304919480_">
		<path class="st3" d="M53.93,20.72v53.5H0.43v-53.5H53.93 M54.18,20.47h-54v54h54V20.47L54.18,20.47z"/>
	</g>
</g>
</svg>
